<svg xmlns="http://www.w3.org/2000/svg" xmlns:xlink="http://www.w3.org/1999/xlink" width="2196" zoomAndPan="magnify" viewBox="0 0 1646.88 846.749992" height="1129" preserveAspectRatio="xMidYMid meet" version="1.0"><defs><g/><clipPath id="9128f5bb82"><path d="M 0.183594 0 L 598 0 L 598 740 L 0.183594 740 Z M 0.183594 0 " clip-rule="nonzero"/></clipPath><clipPath id="c9a0b97d95"><path d="M 1022 0 L 1646.578125 0 L 1646.578125 729 L 1022 729 Z M 1022 0 " clip-rule="nonzero"/></clipPath><clipPath id="56c79f1414"><path d="M 4 116 L 777 116 L 777 846.5 L 4 846.5 Z M 4 116 " clip-rule="nonzero"/></clipPath><clipPath id="008228e783"><path d="M 215 83 L 978 83 L 978 846.5 L 215 846.5 Z M 215 83 " clip-rule="nonzero"/></clipPath><clipPath id="bdb08cccc8"><path d="M 634 77 L 1420 77 L 1420 846.5 L 634 846.5 Z M 634 77 " clip-rule="nonzero"/></clipPath><clipPath id="d3626d46ca"><path d="M 856 116 L 1627 116 L 1627 846.5 L 856 846.5 Z M 856 116 " clip-rule="nonzero"/></clipPath></defs><g clip-path="url(#9128f5bb82)"><path stroke-linecap="butt" transform="matrix(4.520876, -1.477988, 1.477988, 4.520876, 101.650433, 231.780261)" fill="none" stroke-linejoin="miter" d="M 17.770637 30.824055 C 17.850455 30.883847 18.080737 30.914201 18.461737 30.914337 C 18.842737 30.914473 19.133787 30.764235 19.334106 30.463368 C 19.534424 30.162502 19.634434 29.671585 19.63439 28.989837 L 19.63495 26.704616 C 19.634937 25.983132 19.549626 25.467055 19.379017 25.156384 C 19.208408 24.845714 18.928317 24.690206 18.536929 24.69013 C 18.146321 24.690309 17.880866 24.730541 17.740565 24.810824 C 17.760621 24.910697 17.770694 25.080752 17.770528 25.321767 Z M 18.522088 44.414932 L 18.522439 49.015234 C 17.640327 49.757657 16.397466 50.363998 14.793601 50.835036 C 13.189991 51.305294 11.5162 51.540916 9.772486 51.541123 C 7.286511 51.541463 5.251732 51.060285 3.668151 50.097588 C 1.864045 48.9954 0.961942 47.401817 0.961841 45.316838 L 0.962483 16.752512 C 0.962409 16.110501 1.398399 15.469346 2.269928 14.828012 C 3.142492 14.186153 4.349399 13.605212 5.893758 13.083614 C 9.200958 11.961501 12.979918 11.399721 17.229094 11.400359 C 23.102249 11.399665 27.782952 12.863374 31.270931 15.789668 C 34.758655 18.716742 36.502767 22.650672 36.503268 27.591458 C 36.502733 32.532769 34.929785 36.376786 31.782083 39.122745 C 28.755377 41.728539 24.556068 43.031633 19.183377 43.031773 C 17.960648 43.032085 16.652667 42.886153 15.259705 42.595791 C 13.866742 42.305429 12.928998 42.049836 12.448289 41.828741 C 12.287677 41.989652 12.207919 42.209831 12.207723 42.490582 C 12.207917 43.512813 14.312965 44.154348 18.522088 44.414932 Z M 18.522088 44.414932 " stroke="#d269e6" stroke-width="10.624103" stroke-opacity="1" stroke-miterlimit="4"/></g><path stroke-linecap="butt" transform="matrix(4.642703, -1.033476, 1.033476, 4.642703, 281.056985, 173.448864)" fill="none" stroke-linejoin="miter" d="M 19.63424 31.245033 C 19.795415 31.405434 20.045967 31.485607 20.386696 31.485731 C 20.727425 31.485854 21.017315 31.415764 21.258148 31.275017 C 20.737334 28.228576 20.386035 26.423876 20.206297 25.863056 C 19.985769 25.281376 19.655033 24.990679 19.213287 24.990786 C 19.013037 24.990803 18.7725 25.050844 18.49248 25.171089 Z M 13.681086 40.265384 C 13.480556 40.546357 13.380514 40.80679 13.380783 41.047482 C 13.380127 41.628726 13.926543 42.114674 15.019051 42.505951 C 16.111737 42.896426 17.439378 43.14232 19.003133 43.24221 C 19.264159 46.129015 19.544521 47.772366 19.844841 48.173244 C 19.464203 48.915584 18.411993 49.662401 16.68821 50.413697 C 14.964249 51.165795 13.019508 51.541452 10.854787 51.540846 C 7.988119 51.541323 5.532242 50.924805 3.487779 49.692274 C 1.443495 48.45894 0.420546 46.870728 0.420894 44.926389 C 0.420905 44.40474 0.471312 43.94395 0.571494 43.543039 L 6.97545 14.918055 C 8.579608 13.895291 10.493771 13.093823 12.719099 12.512227 C 14.944248 11.931432 17.258817 11.640624 19.664409 11.640159 C 23.112321 11.640338 26.059038 12.221401 28.505186 13.384329 C 31.290847 14.707812 32.98498 16.622121 33.586607 19.127878 L 40.441609 47.481872 C 38.357505 50.188244 34.959256 51.541111 30.248464 51.540831 C 27.963219 51.541161 26.02954 51.130072 24.44547 50.308809 C 22.861577 49.486744 21.939673 48.313946 21.678954 46.790236 L 21.018065 43.12197 C 22.220646 43.101917 23.383306 42.871889 24.5056 42.430105 C 25.628518 41.9893 26.189619 41.528606 26.189882 41.047399 C 26.189731 40.726802 26.059234 40.466375 25.798572 40.265317 C 25.036924 40.806734 24.104914 41.217677 23.002543 41.498145 C 21.899993 41.779415 20.877666 41.919524 19.935383 41.919272 C 17.229504 41.919361 15.144531 41.367738 13.681086 40.265384 Z M 13.681086 40.265384 " stroke="#d269e6" stroke-width="10.624103" stroke-opacity="1" stroke-miterlimit="4"/><path stroke-linecap="butt" transform="matrix(4.721963, -0.570816, 0.570816, 4.721963, 486.676227, 128.934495)" fill="none" stroke-linejoin="miter" d="M 0.962273 45.437098 L 0.96198 15.308569 C 0.962237 14.266263 1.799128 13.399547 3.47275 12.707605 C 5.14709 12.016576 7.116409 11.670598 9.381425 11.670585 C 10.664443 11.670987 11.871688 11.826025 13.004691 12.136711 C 14.136879 12.447299 15.003947 12.843307 15.605081 13.324637 C 16.427096 14.367073 17.178902 15.429149 17.860401 16.511679 C 18.5419 17.594209 20.07556 20.1199 22.461383 24.088752 C 22.681417 24.088879 22.881811 24.018797 23.062566 23.878506 C 23.242505 23.738117 23.333108 23.522402 23.332644 23.231981 C 23.333093 22.940843 23.082143 22.375275 22.581719 21.533029 L 19.33414 15.940342 L 19.333854 14.286632 C 20.356346 13.444834 21.599031 12.79345 23.062824 12.331763 C 24.525703 11.870793 26.039328 11.640142 27.602787 11.640528 C 30.148243 11.640499 32.202836 12.101472 33.766567 13.023449 C 35.590586 14.125796 36.503072 15.850069 36.503309 18.195355 L 36.503316 46.670174 C 36.503377 48.394173 35.68099 49.647315 34.037068 50.428882 C 32.634451 51.130421 30.759684 51.481211 28.414398 51.481448 C 27.111516 51.481126 25.843721 51.341105 24.611112 51.060568 C 23.377786 50.779116 22.411238 50.419063 21.709316 49.977666 C 20.28607 48.153595 18.872933 46.109044 17.469904 43.844011 L 14.402439 38.732222 C 13.821103 38.812507 13.530411 39.123157 13.530363 39.664174 C 13.530522 40.005021 13.821549 40.656504 14.402628 41.618525 L 18.161188 47.692397 L 18.161331 49.285701 C 15.836096 50.789823 13.214738 51.54092 10.29859 51.541638 C 7.381726 51.541441 5.096527 51.0104 3.443092 49.947701 C 1.788842 48.884904 0.962108 47.381946 0.962273 45.437098 Z M 0.962273 45.437098 " stroke="#d269e6" stroke-width="10.624103" stroke-opacity="1" stroke-miterlimit="4"/><path stroke-linecap="butt" transform="matrix(4.756004, 0.0564581, -0.0564581, 4.756004, 755.509737, 102.454717)" fill="none" stroke-linejoin="miter" d="M 20.446738 39.032955 C 20.647144 39.03304 20.827236 38.982444 20.987855 38.882799 L 20.9874 36.146132 C 22.350539 35.224023 24.260249 34.472833 26.715689 33.890929 C 29.171139 33.309847 31.56187 33.019463 33.88705 33.018964 C 34.949557 34.101185 35.836101 35.72018 36.548314 37.875109 C 37.259705 40.030048 37.635198 41.979535 37.675613 43.723561 C 37.274462 44.525013 36.598065 45.387226 35.646413 46.309378 C 34.69394 47.23154 33.545981 48.083746 32.203347 48.865164 C 28.875643 50.829865 25.056612 51.811516 20.747095 51.811752 C 14.573158 51.811944 9.711758 50.017553 6.163726 46.429392 C 2.495309 42.801594 0.661561 37.774645 0.66168 31.350199 C 0.6618 24.925752 2.6659 19.879527 6.674791 16.210693 C 8.439205 14.566799 10.494267 13.329299 12.839145 12.497381 C 15.184845 11.665453 17.650466 11.249337 20.23602 11.249855 C 25.287201 11.24985 29.427252 12.472123 32.654551 14.918336 C 35.88184 17.363728 37.495423 20.380209 37.495312 23.968603 C 37.495406 26.674885 36.663311 28.674024 34.999859 29.966833 C 33.335596 31.260472 31.0805 31.906525 28.234592 31.906634 C 26.670776 31.906307 25.09746 31.52089 23.513804 30.748748 C 21.930157 29.977428 20.987672 29.25024 20.68719 28.568818 C 20.687392 26.925334 20.717214 25.632206 20.777488 24.690246 C 20.737005 24.670193 20.667075 24.660346 20.566867 24.659893 L 20.356607 24.659925 C 20.056004 24.660208 19.820469 24.745137 19.650012 24.915533 C 19.479556 25.085929 19.328548 25.441715 19.198631 25.982871 C 19.068714 26.524028 19.003251 27.99745 19.003062 30.403128 C 19.00319 36.156545 19.484138 39.032883 20.446738 39.032955 Z M 20.446738 39.032955 " stroke="#d269e6" stroke-width="10.624103" stroke-opacity="1" stroke-miterlimit="4"/><path stroke-linecap="butt" transform="matrix(4.726878, 0.528575, -0.528575, 4.726878, 954.452462, 105.409187)" fill="none" stroke-linejoin="miter" d="M 21.619133 30.253231 C 21.618901 28.248432 21.529233 26.870121 21.348494 26.118483 C 21.167756 25.366844 20.837273 24.990604 20.35632 24.990671 C 20.055578 24.991245 19.784926 25.090927 19.544545 25.291349 C 19.584886 25.652103 19.644539 26.13383 19.724954 26.734714 C 19.80546 27.336415 19.844818 28.619531 19.845474 30.58379 L 19.845035 32.538254 C 19.845359 33.900937 19.81504 34.893518 19.754802 35.515089 C 19.694474 36.135843 19.644875 36.667801 19.604917 37.108604 C 19.58468 37.348867 19.564443 37.589131 19.544297 37.830211 C 19.784869 38.030567 20.055571 38.130866 20.356405 38.131108 C 20.837357 38.131041 21.168036 37.755243 21.348352 37.002897 C 21.528758 36.251367 21.6193 34.873565 21.619068 32.868766 Z M 20.41638 51.962322 C 16.848009 51.962202 13.575782 51.225708 10.59879 49.752114 C 7.622615 48.278428 5.22189 46.023913 3.398066 42.986753 C 1.573426 39.949684 0.661637 36.156035 0.661882 31.605898 C 0.661505 25.010512 2.64563 19.859217 6.614981 16.151105 C 10.142689 12.883263 14.683696 11.249928 20.236188 11.249649 C 26.269631 11.249304 31.045371 13.119237 34.563225 16.857815 C 38.081804 20.595485 39.840561 25.511697 39.840223 31.605544 C 39.840908 38.381049 37.956653 43.553405 34.18809 47.12089 C 30.760027 50.348666 26.169668 51.961902 20.41638 51.962322 Z M 20.41638 51.962322 " stroke="#d269e6" stroke-width="10.624103" stroke-opacity="1" stroke-miterlimit="4"/><path stroke-linecap="butt" transform="matrix(4.651001, 0.995465, -0.995465, 4.651001, 1163.255915, 129.919181)" fill="none" stroke-linejoin="miter" d="M 20.446429 39.033213 C 20.647132 39.033089 20.827026 38.982828 20.987716 38.882085 L 20.987633 36.146637 C 22.350676 35.224157 24.260148 34.4728 26.715705 33.89096 C 29.171434 33.309923 31.561644 33.019227 33.88714 33.0187 C 34.949532 34.101516 35.836788 35.719861 36.548277 37.87471 C 37.259939 40.030362 37.635864 41.979034 37.675766 43.723309 C 37.274681 44.525566 36.598311 45.387582 35.645852 46.309531 C 34.694196 47.231307 33.546213 48.083401 32.203509 48.865468 C 28.875628 50.829993 25.056925 51.811934 20.747572 51.812095 C 14.572751 51.811746 9.7122 50.01749 6.164311 46.429671 C 2.496034 42.801269 0.661841 37.774986 0.661562 31.350018 C 0.661455 24.925853 2.666152 19.879162 6.675024 16.210919 C 8.438788 14.566888 10.493614 13.329209 12.839329 12.49708 C 15.184414 11.665926 17.650255 11.249859 20.236223 11.249855 C 25.287186 11.249702 29.426629 12.472648 32.654381 14.91789 C 35.881329 17.363304 37.495516 20.380667 37.494991 23.968716 C 37.495483 26.674681 36.663678 28.674399 34.999404 29.967065 C 33.336105 31.260363 31.080834 31.90684 28.234394 31.906322 C 26.670642 31.906746 25.097174 31.520389 23.513533 30.749027 C 21.929719 29.976863 20.987296 29.250512 20.686894 28.569001 C 20.687005 26.925346 20.716801 25.632283 20.777258 24.690444 C 20.736881 24.670531 20.666675 24.660361 20.566639 24.659935 L 20.355955 24.660515 C 20.055215 24.660213 19.819731 24.745049 19.649675 24.915826 C 19.479446 25.0858 19.328961 25.4422 19.19868 25.983246 C 19.068399 26.524293 19.003339 27.997917 19.00333 30.403315 C 19.003428 36.156423 19.484614 39.032463 20.446429 39.033213 Z M 20.446429 39.033213 " stroke="#d269e6" stroke-width="10.624103" stroke-opacity="1" stroke-miterlimit="4"/><g clip-path="url(#c9a0b97d95)"><path stroke-linecap="butt" transform="matrix(4.529126, 1.452509, -1.452509, 4.529126, 1357.689075, 172.140588)" fill="none" stroke-linejoin="miter" d="M 21.619546 30.252931 C 21.619298 28.248622 21.529059 26.870006 21.348298 26.118114 C 21.167787 25.367005 20.837553 24.99079 20.356281 24.990753 C 20.055259 24.990695 19.784776 25.091239 19.544581 25.291605 C 19.584359 25.652299 19.644583 26.133219 19.724469 26.734617 C 19.805138 27.335764 19.845036 28.619266 19.845477 30.583839 L 19.845255 32.538275 C 19.84503 33.901055 19.814751 34.893122 19.754668 35.51526 C 19.695117 36.136365 19.644645 36.667448 19.604815 37.108008 C 19.584663 37.349064 19.56426 37.589337 19.54489 37.830142 C 19.785185 38.030795 20.055201 38.130494 20.356223 38.130552 C 20.837495 38.130589 21.168 37.75464 21.348772 37.003238 C 21.52851 36.251304 21.618773 34.873448 21.619307 32.868889 Z M 20.416837 51.962434 C 16.848723 51.962241 13.575747 51.225715 10.599475 49.752355 C 7.62217 48.278464 5.221535 46.023664 3.398103 42.98692 C 1.573638 39.949646 0.661643 36.15659 0.661616 31.60619 C 0.661285 25.010963 2.646191 19.859348 6.615301 16.150813 C 10.142782 12.88319 14.683254 11.249373 20.235934 11.249613 C 26.269886 11.24989 31.045439 13.119083 34.563627 16.857723 C 38.081564 20.59558 39.840429 25.512523 39.840252 31.605954 C 39.840605 38.381431 37.95624 43.553413 34.187689 47.120867 C 30.759616 50.348847 26.169509 51.962359 20.416837 51.962434 Z M 20.416837 51.962434 " stroke="#d269e6" stroke-width="10.624103" stroke-opacity="1" stroke-miterlimit="4"/></g><g fill="#000000" fill-opacity="1"><g transform="translate(177.027845, 462.344927)"><g><path d="M 50.5 -117.484375 C 50.957031 -117.316406 52.046875 -117.515625 53.765625 -118.078125 C 55.492188 -118.640625 56.585938 -119.75 57.046875 -121.40625 C 57.515625 -123.070312 57.242188 -125.441406 56.234375 -128.515625 L 52.859375 -138.84375 C 51.796875 -142.101562 50.644531 -144.3125 49.40625 -145.46875 C 48.175781 -146.625 46.675781 -146.910156 44.90625 -146.328125 C 43.132812 -145.753906 42 -145.179688 41.5 -144.609375 C 41.726562 -144.191406 42.019531 -143.441406 42.375 -142.359375 Z M 74 -57.140625 L 80.796875 -36.34375 C 77.910156 -31.6875 73.1875 -27.109375 66.625 -22.609375 C 60.070312 -18.109375 52.859375 -14.566406 44.984375 -11.984375 C 33.742188 -8.316406 23.835938 -7.488281 15.265625 -9.5 C 5.460938 -11.8125 -0.976562 -17.679688 -4.0625 -27.109375 L -46.265625 -156.25 C -47.210938 -159.144531 -46.1875 -162.6875 -43.1875 -166.875 C -40.195312 -171.0625 -35.597656 -175.476562 -29.390625 -180.125 C -16.109375 -190.082031 0.140625 -198.203125 19.359375 -204.484375 C 45.910156 -213.160156 69.234375 -213.460938 89.328125 -205.390625 C 109.429688 -197.316406 123.132812 -182.109375 130.4375 -159.765625 C 137.738281 -137.429688 136.304688 -117.726562 126.140625 -100.65625 C 116.285156 -84.414062 99.222656 -72.328125 74.953125 -64.390625 C 69.421875 -62.578125 63.289062 -61.296875 56.5625 -60.546875 C 49.832031 -59.804688 45.210938 -59.578125 42.703125 -59.859375 C 42.222656 -58.890625 42.191406 -57.773438 42.609375 -56.515625 C 44.117188 -51.890625 54.582031 -52.097656 74 -57.140625 Z M 74 -57.140625 "/></g></g></g><g fill="#000000" fill-opacity="1"><g transform="translate(333.76425, 410.226702)"><g><path d="M 70.75 -112 C 71.644531 -111.414062 72.882812 -111.300781 74.46875 -111.65625 C 76.050781 -112.007812 77.332031 -112.640625 78.3125 -113.546875 C 72.738281 -127.140625 69.242188 -135.148438 67.828125 -137.578125 C 66.203125 -140.046875 64.367188 -141.054688 62.328125 -140.609375 C 61.390625 -140.398438 60.332031 -139.867188 59.15625 -139.015625 Z M 52.421875 -63.984375 C 51.785156 -62.460938 51.59375 -61.148438 51.84375 -60.046875 C 52.4375 -57.335938 55.472656 -55.640625 60.953125 -54.953125 C 66.429688 -54.265625 72.851562 -54.5 80.21875 -55.65625 C 84.40625 -42.519531 87.40625 -35.175781 89.21875 -33.625 C 88.21875 -29.800781 84.101562 -25.25 76.875 -19.96875 C 69.644531 -14.695312 61.003906 -10.941406 50.953125 -8.703125 C 37.640625 -5.734375 25.597656 -6.054688 14.828125 -9.671875 C 4.066406 -13.285156 -2.316406 -19.609375 -4.328125 -28.640625 C -4.859375 -31.054688 -5.097656 -33.25 -5.046875 -35.21875 L -4.90625 -174.71875 C 1.488281 -181.125 9.550781 -186.828125 19.28125 -191.828125 C 29.007812 -196.828125 39.457031 -200.570312 50.625 -203.0625 C 66.625 -206.625 80.90625 -206.960938 93.46875 -204.078125 C 107.757812 -200.828125 117.601562 -193.691406 123 -182.671875 L 184.125 -58.125 C 177.25 -43.40625 162.875 -33.613281 141 -28.75 C 130.382812 -26.382812 120.972656 -26.289062 112.765625 -28.46875 C 104.566406 -30.65625 99.078125 -35.144531 96.296875 -41.9375 L 89.4375 -58.296875 C 95 -59.617188 100.15625 -61.882812 104.90625 -65.09375 C 109.664062 -68.3125 111.800781 -71.039062 111.3125 -73.28125 C 110.976562 -74.757812 110.097656 -75.832031 108.671875 -76.5 C 105.703125 -73.195312 101.800781 -70.320312 96.96875 -67.875 C 92.144531 -65.4375 87.539062 -63.726562 83.15625 -62.75 C 70.601562 -59.957031 60.359375 -60.367188 52.421875 -63.984375 Z M 52.421875 -63.984375 "/></g></g></g><g fill="#000000" fill-opacity="1"><g transform="translate(515.787827, 369.754598)"><g><path d="M 1.375 -26.8125 L -15.828125 -169.0625 C -16.421875 -173.988281 -12.960938 -178.5625 -5.453125 -182.78125 C 2.046875 -187.007812 11.144531 -189.769531 21.84375 -191.0625 C 27.894531 -191.789062 33.6875 -191.742188 39.21875 -190.921875 C 44.75 -190.097656 49.070312 -188.722656 52.1875 -186.796875 C 56.664062 -182.347656 60.816406 -177.765625 64.640625 -173.046875 C 68.472656 -168.328125 77.160156 -157.28125 90.703125 -139.90625 C 91.742188 -140.03125 92.648438 -140.472656 93.421875 -141.234375 C 94.203125 -141.992188 94.507812 -143.054688 94.34375 -144.421875 C 94.175781 -145.796875 92.664062 -148.332031 89.8125 -152.03125 L 71.265625 -176.578125 L 70.328125 -184.390625 C 74.679688 -188.941406 80.175781 -192.722656 86.8125 -195.734375 C 93.457031 -198.753906 100.472656 -200.707031 107.859375 -201.59375 C 119.890625 -203.050781 129.863281 -202.050781 137.78125 -198.59375 C 147.019531 -194.4375 152.3125 -186.820312 153.65625 -175.75 L 169.90625 -41.28125 C 170.882812 -33.144531 167.710938 -26.757812 160.390625 -22.125 C 154.171875 -18.019531 145.519531 -15.296875 134.4375 -13.953125 C 128.289062 -13.210938 122.226562 -13.148438 116.25 -13.765625 C 110.269531 -14.390625 105.492188 -15.539062 101.921875 -17.21875 C 94.160156 -25.019531 86.328125 -33.863281 78.421875 -43.75 L 61 -66.140625 C 58.300781 -65.429688 57.109375 -63.800781 57.421875 -61.25 C 57.617188 -59.632812 59.359375 -56.722656 62.640625 -52.515625 L 83.859375 -25.984375 L 84.765625 -18.453125 C 74.660156 -10.023438 62.71875 -4.976562 48.9375 -3.3125 C 35.164062 -1.644531 24.070312 -2.847656 15.65625 -6.921875 C 7.238281 -10.992188 2.476562 -17.625 1.375 -26.8125 Z M 1.375 -26.8125 "/></g></g></g><g fill="#000000" fill-opacity="1"><g transform="translate(688.522986, 350.539394)"><g/></g></g><g fill="#000000" fill-opacity="1"><g transform="translate(752.630373, 345.010931)"><g><path d="M 97.921875 -55.765625 C 98.867188 -55.753906 99.734375 -55.984375 100.515625 -56.453125 L 100.671875 -69.453125 C 107.191406 -73.773438 116.304688 -77.242188 128.015625 -79.859375 C 139.734375 -82.484375 151.117188 -83.734375 162.171875 -83.609375 C 167.160156 -78.398438 171.285156 -70.648438 174.546875 -60.359375 C 177.816406 -50.066406 179.492188 -40.773438 179.578125 -32.484375 C 177.628906 -28.691406 174.363281 -24.628906 169.78125 -20.296875 C 165.207031 -15.972656 159.707031 -11.988281 153.28125 -8.34375 C 137.332031 0.8125 119.113281 5.269531 98.625 5.03125 C 69.257812 4.675781 46.238281 -4.128906 29.5625 -21.390625 C 12.320312 -38.859375 3.882812 -62.867188 4.25 -93.421875 C 4.613281 -123.972656 14.4375 -147.859375 33.71875 -165.078125 C 42.1875 -172.785156 52.019531 -178.550781 63.21875 -182.375 C 74.425781 -186.207031 86.179688 -188.050781 98.484375 -187.90625 C 122.492188 -187.625 142.109375 -181.578125 157.328125 -169.765625 C 172.546875 -157.953125 180.054688 -143.507812 179.859375 -126.4375 C 179.703125 -113.570312 175.628906 -104.113281 167.640625 -98.0625 C 159.648438 -92.007812 148.890625 -89.0625 135.359375 -89.21875 C 127.921875 -89.3125 120.457031 -91.238281 112.96875 -95 C 105.476562 -98.757812 101.039062 -102.257812 99.65625 -105.5 C 99.75 -113.320312 99.96875 -119.472656 100.3125 -123.953125 C 100.113281 -124.046875 99.78125 -124.097656 99.3125 -124.109375 L 98.296875 -124.125 C 96.867188 -124.132812 95.742188 -123.738281 94.921875 -122.9375 C 94.109375 -122.132812 93.375 -120.445312 92.71875 -117.875 C 92.070312 -115.3125 91.679688 -108.316406 91.546875 -96.890625 C 91.222656 -69.523438 93.347656 -55.816406 97.921875 -55.765625 Z M 97.921875 -55.765625 "/></g></g></g><g fill="#000000" fill-opacity="1"><g transform="translate(927.495121, 346.479941)"><g><path d="M 113.15625 -86.640625 C 114.21875 -96.117188 114.519531 -102.679688 114.0625 -106.328125 C 113.601562 -109.972656 112.238281 -111.921875 109.96875 -112.171875 C 108.539062 -112.335938 107.207031 -112.015625 105.96875 -111.203125 C 105.96875 -109.472656 106 -107.164062 106.0625 -104.28125 C 106.125 -101.394531 105.640625 -95.304688 104.609375 -86.015625 L 103.578125 -76.78125 C 102.847656 -70.332031 102.175781 -65.65625 101.5625 -62.75 C 100.945312 -59.851562 100.429688 -57.375 100.015625 -55.3125 C 99.785156 -54.175781 99.5625 -53.046875 99.34375 -51.921875 C 100.363281 -50.847656 101.585938 -50.226562 103.015625 -50.0625 C 105.285156 -49.8125 107.046875 -51.414062 108.296875 -54.875 C 109.554688 -58.332031 110.710938 -64.800781 111.765625 -74.28125 Z M 95.984375 15.34375 C 79.128906 13.457031 64.050781 8.242188 50.75 -0.296875 C 37.457031 -8.835938 27.300781 -20.765625 20.28125 -36.078125 C 13.269531 -51.398438 10.96875 -69.816406 13.375 -91.328125 C 16.863281 -122.503906 28.972656 -145.800781 49.703125 -161.21875 C 68.109375 -174.800781 90.429688 -180.125 116.671875 -177.1875 C 145.191406 -174 166.773438 -162.640625 181.421875 -143.109375 C 196.078125 -123.578125 201.796875 -99.410156 198.578125 -70.609375 C 194.992188 -38.585938 183.351562 -15.140625 163.65625 -0.265625 C 145.738281 13.179688 123.179688 18.382812 95.984375 15.34375 Z M 95.984375 15.34375 "/></g></g></g><g fill="#000000" fill-opacity="1"><g transform="translate(1112.487209, 367.120251)"><g><path d="M 107 -35.296875 C 107.925781 -35.097656 108.816406 -35.15625 109.671875 -35.46875 L 112.390625 -48.1875 C 119.660156 -51.125 129.289062 -52.71875 141.28125 -52.96875 C 153.28125 -53.226562 164.679688 -52.203125 175.484375 -49.890625 C 179.359375 -43.804688 181.875 -35.394531 183.03125 -24.65625 C 184.195312 -13.925781 184.007812 -4.488281 182.46875 3.65625 C 179.800781 6.988281 175.796875 10.320312 170.453125 13.65625 C 165.109375 17 158.925781 19.820312 151.90625 22.125 C 134.457031 27.957031 115.710938 28.726562 95.671875 24.4375 C 66.960938 18.289062 46.140625 5.109375 33.203125 -15.109375 C 19.765625 -35.640625 16.242188 -60.84375 22.640625 -90.71875 C 29.035156 -120.601562 43.378906 -142.082031 65.671875 -155.15625 C 75.503906 -161.039062 86.289062 -164.75 98.03125 -166.28125 C 109.769531 -167.820312 121.65625 -167.304688 133.6875 -164.734375 C 157.164062 -159.703125 175.195312 -149.890625 187.78125 -135.296875 C 200.363281 -120.710938 204.867188 -105.078125 201.296875 -88.390625 C 198.609375 -75.804688 192.75 -67.332031 183.71875 -62.96875 C 174.6875 -58.613281 163.554688 -57.851562 150.328125 -60.6875 C 143.046875 -62.25 136.101562 -65.613281 129.5 -70.78125 C 122.90625 -75.945312 119.25 -80.265625 118.53125 -83.734375 C 120.164062 -91.378906 121.597656 -97.363281 122.828125 -101.6875 C 122.648438 -101.8125 122.332031 -101.925781 121.875 -102.03125 L 120.890625 -102.234375 C 119.492188 -102.535156 118.3125 -102.375 117.34375 -101.75 C 116.382812 -101.125 115.332031 -99.617188 114.1875 -97.234375 C 113.050781 -94.847656 111.285156 -88.0625 108.890625 -76.875 C 103.160156 -50.113281 102.53125 -36.253906 107 -35.296875 Z M 107 -35.296875 "/></g></g></g><g fill="#000000" fill-opacity="1"><g transform="translate(1283.611118, 403.126002)"><g><path d="M 128.046875 -62.546875 C 130.960938 -71.640625 132.554688 -78.019531 132.828125 -81.6875 C 133.097656 -85.351562 132.144531 -87.535156 129.96875 -88.234375 C 128.613281 -88.671875 127.242188 -88.609375 125.859375 -88.046875 C 125.515625 -86.359375 125.085938 -84.09375 124.578125 -81.25 C 124.066406 -78.40625 122.382812 -72.535156 119.53125 -63.640625 L 116.6875 -54.796875 C 114.707031 -48.609375 113.128906 -44.148438 111.953125 -41.421875 C 110.785156 -38.703125 109.789062 -36.378906 108.96875 -34.453125 C 108.519531 -33.390625 108.078125 -32.320312 107.640625 -31.25 C 108.441406 -30 109.519531 -29.15625 110.875 -28.71875 C 113.050781 -28.019531 115.097656 -29.238281 117.015625 -32.375 C 118.929688 -35.519531 121.34375 -41.628906 124.25 -50.703125 Z M 91.078125 34.015625 C 74.921875 28.828125 61.171875 20.734375 49.828125 9.734375 C 38.484375 -1.265625 30.878906 -14.960938 27.015625 -31.359375 C 23.160156 -47.765625 24.539062 -66.273438 31.15625 -86.890625 C 40.726562 -116.753906 57.203125 -137.195312 80.578125 -148.21875 C 101.304688 -157.894531 124.242188 -158.703125 149.390625 -150.640625 C 176.710938 -141.878906 195.625 -126.472656 206.125 -104.421875 C 216.632812 -82.378906 217.46875 -57.5625 208.625 -29.96875 C 198.78125 0.71875 182.734375 21.398438 160.484375 32.078125 C 140.273438 41.722656 117.140625 42.367188 91.078125 34.015625 Z M 91.078125 34.015625 "/></g></g></g><g clip-path="url(#56c79f1414)"><path stroke-linecap="butt" transform="matrix(0.623764, -0.141478, 0.141478, 0.623764, 258.982392, 382.180269)" fill="none" stroke-linejoin="miter" d="M 302.011511 139.383377 C 298.742003 95.98243 255.340884 70.952172 141.703291 70.953592 C 19.842923 70.956164 8.339579 142.988436 8.341593 171.169633 C 8.34393 204.429699 22.210695 233.96457 48.473467 252.001471 L 48.923912 252.00344 C 81.28203 273.758719 126.036992 279.732746 166.730204 279.731767 C 174.056694 279.733983 181.497146 279.730735 188.825605 279.282506 L 189.731241 290.779 C 181.046776 291.683679 172.253019 292.131465 163.45988 292.134762 C 123.331076 292.132247 83.985236 282.437797 48.021986 264.511516 C 24.013133 269.586788 11.496862 285.259542 14.770308 327.759599 C 18.039816 371.160547 61.440809 396.522682 174.958483 396.525376 C 296.937419 396.524647 308.436776 324.040579 308.436112 295.853425 C 308.435259 207.697613 217.008312 187.856249 144.972128 187.856021 C 138.996974 187.859712 133.023171 187.857447 127.385232 188.307104 L 126.037174 179.06492 C 135.27874 178.161351 144.524293 177.709578 153.316081 177.712237 C 193.446236 177.708796 233.129909 187.404722 268.751338 204.877731 C 292.766147 199.803809 305.166389 181.881592 302.011511 139.383377 Z M 100.66922 355.490214 C 101.571461 355.488196 102.470383 355.942579 103.487254 356.843295 C 104.389544 358.193963 120.056983 361.014854 120.959224 361.012836 C 133.026847 363.718627 146.328048 365.182449 159.740952 365.187423 C 175.973192 365.186834 192.548998 362.815577 207.764762 359.096288 C 214.755338 357.293896 221.177295 352.669706 229.07213 351.767537 C 232.680412 352.673618 233.692951 357.293209 229.972774 358.647519 C 217.009872 360.109813 218.925762 364.170285 205.507126 366.537457 C 189.278478 369.807826 172.706484 371.61007 156.586856 371.611151 C 145.421572 371.608716 103.939125 368.794221 98.299416 361.465592 C 96.496678 358.645688 98.30168 355.491789 100.66922 355.490214 Z M 79.473696 96.880767 C 92.329451 95.531943 90.526664 91.359352 103.939344 88.99083 C 120.060844 85.83393 136.63333 83.919075 152.86557 83.918486 C 163.912286 83.919078 205.513301 86.735416 211.034443 94.062202 C 212.837181 96.882107 211.037642 100.149967 208.664146 100.150191 C 207.761905 100.152209 206.863476 99.585215 205.959216 98.684992 C 205.056926 97.334323 189.276876 94.51294 188.374635 94.514958 C 176.425579 91.811011 163.011275 90.459307 149.59837 90.454334 C 133.472785 90.454064 116.790816 92.713568 101.569097 96.431506 C 94.697088 98.235742 88.156563 102.858088 80.380295 103.7621 C 76.659402 102.855527 75.753519 98.235078 79.473696 96.880767 Z M 95.148381 240.951435 C 98.867305 242.308454 99.318756 246.475138 94.696337 247.831467 C 57.269216 241.853699 31.453494 212.320255 26.829035 174.893159 C 27.735165 172.637564 29.086326 171.622662 30.439012 171.622613 C 31.90431 171.623057 33.258523 172.63786 33.707048 174.442961 C 37.875451 207.696065 60.9844 235.882877 95.148381 240.951435 Z M 225.800991 96.879155 C 226.701882 96.883093 227.157665 97.330902 228.056586 97.785285 C 228.620994 97.78179 229.06947 98.234204 229.073457 98.686001 C 230.876195 101.505905 229.071192 104.659804 226.703653 104.661379 C 225.801411 104.663397 224.90249 104.209014 223.437143 102.855884 C 221.182116 100.152577 222.981656 96.884717 225.800991 96.879155 Z M 82.630206 350.866415 C 83.532447 350.864397 84.549936 351.320624 85.902672 352.673261 C 88.157206 355.489179 86.352203 358.643077 83.532868 358.648639 C 82.631977 358.644701 82.18215 358.198243 81.277272 357.742509 C 80.826827 357.74054 80.377 357.294082 80.378969 356.843637 C 78.46362 354.02324 80.375278 350.868482 82.630206 350.866415 Z M 114.986983 243.660059 C 115.889224 243.658041 116.79164 244.676832 117.691913 245.125259 C 119.609772 248.735286 118.256642 250.200633 116.340899 250.198221 C 113.635526 250.198319 109.010816 246.926224 113.635822 244.674961 C 114.082772 244.112523 114.536537 243.658091 114.986983 243.660059 Z M 114.986983 243.660059 " stroke="#d269e6" stroke-width="77.920647" stroke-opacity="1" stroke-miterlimit="4"/></g><g clip-path="url(#008228e783)"><path stroke-linecap="butt" transform="matrix(0.635259, -0.0744497, 0.0744497, 0.635259, 474.169512, 334.401654)" fill="none" stroke-linejoin="miter" d="M 258.609266 249.744444 C 229.523727 249.748473 217.911276 271.391188 189.274934 271.392519 C 165.263305 271.388581 152.410699 257.073812 152.413842 237.686185 C 152.412301 217.394097 165.265628 201.271089 189.277256 201.275027 C 217.913598 201.273696 229.522329 223.368829 258.607869 223.3648 C 291.412949 223.366251 310.804204 185.036561 310.800846 155.053337 C 310.804625 109.845869 264.128422 70.955461 174.505922 70.954687 L 168.535037 70.955918 C 70.229671 73.319534 11.044828 134.760903 11.049969 231.258749 C 11.046572 346.245827 76.206435 394.269329 168.534766 396.524169 L 174.511716 396.523649 C 264.128151 396.523713 310.802004 362.818009 310.799717 317.609831 C 310.799786 285.708501 289.944728 249.745835 258.609266 249.744444 Z M 70.230868 136.113904 C 93.227605 102.855453 134.3773 87.638225 174.506213 87.637129 C 199.422303 87.636383 224.000321 93.615949 243.386396 103.758715 C 243.386982 107.478967 239.667316 111.199804 237.300013 111.199074 C 236.396263 111.197693 235.951144 110.745838 235.497262 109.844074 C 235.497262 109.844074 203.591542 95.977354 180.593558 95.981527 C 137.648855 95.978525 100.218115 107.480981 73.841686 143.553157 C 69.67077 149.078127 65.608473 154.148498 64.146756 161.479048 C 63.694841 163.393786 62.338525 163.843588 60.985577 163.844904 C 59.522024 163.845556 57.719937 162.37995 57.267437 160.574436 C 59.071134 150.4308 65.161537 144.005507 70.230868 136.113904 Z M 54.901712 293.147687 C 55.464232 291.233613 57.271127 289.877363 58.623364 289.882113 C 59.970247 289.880086 61.436498 290.328632 61.888998 292.134146 C 63.243118 299.573334 67.413758 304.649316 71.587096 310.174496 C 97.852572 346.248568 135.281419 357.743386 178.226122 357.746388 C 201.340777 357.74359 233.127113 343.876343 233.127113 343.876343 C 233.693652 342.977336 234.146218 342.526152 235.043903 342.526823 C 237.300601 342.526889 241.021439 346.246554 241.0234 349.850135 C 221.632135 360.109352 197.165763 366.08435 172.255739 366.085807 C 132.010155 366.085528 90.977852 350.866354 67.862661 317.608808 C 62.791658 309.72172 56.817556 303.296803 54.901712 293.147687 Z M 154.666893 278.380322 C 155.570644 278.381703 156.581631 278.832236 157.488079 279.282815 C 163.461451 288.075036 171.802336 288.523732 181.05034 288.525324 L 183.755526 288.528758 C 188.828725 288.526856 189.724944 294.049213 184.65306 295.404063 C 171.801475 295.404433 159.743035 295.40552 152.414794 283.902653 C 150.946576 280.637606 152.416261 278.380967 154.666893 278.380322 Z M 160.194038 189.663749 C 169.436186 181.320376 181.499376 179.967051 192.998013 179.967998 C 198.071212 179.966096 198.973496 185.489164 193.900948 186.954619 C 178.226796 186.956245 171.352096 189.212793 164.362021 195.182152 C 163.460258 195.636034 163.011771 195.632666 162.10731 195.63735 C 159.291519 195.633251 157.484755 192.476105 160.194038 189.663749 Z M 254.889556 340.720478 C 253.081345 340.723781 251.619837 339.710077 251.16535 337.449299 C 251.168719 337.000812 251.166021 336.551615 250.714837 336.099049 C 251.164764 333.729048 253.084252 332.828725 254.4372 332.827409 C 255.34095 332.828791 256.238635 332.829461 256.692517 333.731225 C 260.859203 335.535442 259.962045 340.724642 255.338043 340.723847 Z M 253.535159 116.27468 C 253.985086 113.904679 255.338705 113.005679 257.140851 113.001665 L 257.70672 113.000343 C 262.324656 113.000428 263.230308 118.075009 259.058142 119.990333 C 258.607563 120.896781 257.703812 120.895399 256.689457 120.893353 C 255.336509 120.894669 253.535744 119.994932 253.081922 117.623549 C 253.534488 117.172365 253.53179 116.723167 253.535159 116.27468 Z M 213.287904 187.855447 C 214.30226 187.857492 215.20601 187.858874 216.557577 188.761308 C 217.457288 190.108861 218.360979 191.579862 217.010058 192.92806 C 216.106913 194.285693 215.20586 194.733509 214.756662 194.736206 C 211.934806 194.731397 209.684324 187.857408 213.287904 187.855447 Z M 198.070012 287.064183 C 198.974473 287.059499 199.986783 288.075901 200.887165 288.525769 C 202.690561 292.131402 201.337554 293.602337 199.425514 293.59962 C 196.719617 293.602252 192.097727 290.330403 196.715729 288.073789 C 197.168959 287.511999 197.621525 287.060815 198.070012 287.064183 Z M 198.070012 287.064183 " stroke="#d269e6" stroke-width="77.920647" stroke-opacity="1" stroke-miterlimit="4"/></g><path stroke-linecap="butt" transform="matrix(0.639591, -0.00453591, 0.00453591, 0.639591, 694.070936, 309.386374)" fill="none" stroke-linejoin="miter" d="M 323.6543 246.476562 C 323.654706 156.856305 310.803151 70.955932 171.80443 70.953462 L 162.105861 70.951863 C 23.107096 70.9555 10.148698 156.856054 10.148293 246.476311 C 10.14565 245.126553 10.594161 265.418578 11.045715 324.034676 C 11.047673 351.316528 14.315034 396.974332 82.180678 396.973142 C 149.142382 396.977756 152.416083 351.317482 152.414126 324.035629 L 152.41278 313.891197 C 136.181809 308.364916 125.134646 292.700439 123.776955 272.292032 L 135.277209 272.294194 C 136.631175 294.950104 151.400512 304.197653 167.182111 304.193533 C 182.401769 304.197643 197.167895 294.951905 198.519552 272.290753 L 210.129734 272.293695 C 208.665809 292.700413 197.616317 308.366976 181.496317 313.889802 L 181.497663 324.034234 C 181.49962 351.316087 184.657054 396.97311 251.618758 396.977724 C 319.484402 396.976534 322.751995 351.316217 322.750038 324.034364 C 323.202379 265.418569 323.651657 245.126803 323.6543 246.476562 Z M 154.215387 215.586757 L 154.21594 182.783816 C 154.215289 177.708547 155.117276 169.366102 167.179687 168.468353 C 180.597704 168.465794 181.497098 177.712696 181.497793 182.781859 L 181.497196 215.590907 C 181.497891 220.660069 180.596683 228.892586 168.534272 229.790335 C 155.116255 229.792894 154.216038 220.662027 154.215387 215.586757 Z M 112.168802 108.378206 C 129.303189 101.054778 148.24134 96.883355 167.180445 96.883306 C 185.667624 96.880052 203.590914 100.604431 218.92648 108.378 C 223.435564 109.845221 224.903091 113.904847 219.829642 115.371292 C 203.144881 108.382119 182.403137 104.210232 162.560136 104.209979 C 145.422715 104.21059 129.306483 107.479805 114.983879 114.468944 L 114.086091 114.468684 C 110.812506 114.469898 109.916665 110.750234 112.168802 108.378206 Z M 295.021207 358.643893 C 281.151225 370.705399 266.387349 375.327837 250.715679 375.332736 C 240.57129 375.327974 229.970167 373.414459 218.92591 370.257996 L 221.62902 363.717798 C 231.774665 366.990038 241.017844 368.338147 250.264443 368.342649 C 264.580249 368.340349 277.997268 364.172523 290.846237 353.123715 C 291.863266 352.672871 292.315235 352.669969 293.213024 352.670229 C 296.03464 352.671917 297.837581 355.939957 295.021207 358.643893 Z M 49.828008 368.790045 L 52.64633 362.366706 C 62.792019 365.632838 72.035154 366.987054 81.281797 366.985449 C 95.597559 366.989256 109.014622 362.815323 121.863591 351.766515 C 122.88062 351.315671 123.326439 351.318833 124.230335 351.319136 C 126.935915 351.320001 128.849607 354.472786 126.032411 357.292757 C 112.169315 369.244378 97.399332 373.866773 81.727705 373.865565 C 71.583273 373.86691 60.987478 372.063367 49.828008 368.790045 Z M 140.803224 235.432361 C 142.269017 235.430542 144.070442 236.328893 144.521806 238.133782 C 145.878019 244.110348 152.415054 244.675839 157.484217 244.675144 L 161.203664 244.670985 C 166.27889 244.676441 167.180275 250.197833 162.107649 251.548242 C 152.415143 251.552793 140.35009 251.100784 138.098598 239.602869 C 137.648316 236.784156 138.995432 235.431755 140.803224 235.432361 Z M 182.851657 155.503514 C 191.193799 157.309397 194.34689 166.547853 195.365827 174.439757 C 195.362017 176.699475 193.898086 178.160981 192.096402 178.160418 C 190.740536 178.163017 188.827104 176.695882 188.37574 174.890992 C 188.377386 172.075484 187.925933 163.393641 181.499086 161.931141 C 177.777083 160.573328 178.680284 155.504468 182.851657 155.503514 Z M 226.701442 119.542533 C 226.702828 117.624814 228.059256 115.82053 229.970868 115.821872 C 231.77866 115.822478 233.695817 117.625548 233.694431 119.543268 C 233.693869 121.344952 231.778749 122.699432 229.970957 122.698826 C 228.059344 122.697484 226.70088 121.344218 226.701442 119.542533 Z M 205.9596 359.099398 C 206.412132 357.294811 207.762193 356.388273 209.118015 356.391781 C 210.583808 356.389961 212.38519 357.29442 212.839499 359.545171 L 212.835471 360.113133 C 212.385884 362.363582 210.583897 363.266915 209.118104 363.268735 C 207.762282 363.265227 205.964062 361.914949 205.9596 359.099398 Z M 36.976954 357.742198 C 37.429486 355.937611 38.779503 355.03718 40.135326 355.040688 C 41.601119 355.038869 43.4025 355.943327 43.850702 358.194035 L 43.853605 358.646005 C 43.403195 361.012489 41.5951 361.915779 40.135414 361.917642 C 38.779592 361.914134 36.975265 360.563813 36.976954 357.742198 Z M 36.976954 357.742198 " stroke="#d269e6" stroke-width="77.920647" stroke-opacity="1" stroke-miterlimit="4"/><g clip-path="url(#bdb08cccc8)"><path stroke-linecap="butt" transform="matrix(0.635771, 0.0699427, -0.0699427, 0.635771, 928.501941, 308.504183)" fill="none" stroke-linejoin="miter" d="M 345.863709 289.879917 L 345.86215 172.638157 C 345.863018 124.615687 340.788816 70.95213 272.472595 70.953514 C 190.743884 70.955852 186.571984 137.918673 186.569307 172.074082 L 186.573525 194.28458 C 186.570651 197.553564 184.655511 199.804098 180.594733 199.808458 C 176.42268 199.806627 174.50973 197.553287 174.506534 194.284971 L 174.508386 172.073805 C 174.511063 137.918396 170.338857 70.951913 88.610146 70.95425 C 20.293925 70.955634 15.217214 124.611545 15.217014 172.640085 L 15.218572 289.881845 C 15.221787 354.026013 21.193828 396.973772 90.524393 396.977536 C 136.180949 396.974488 161.209904 370.258958 161.209317 327.305541 L 161.207508 313.438481 C 145.424301 307.918634 134.827852 292.132771 133.474886 272.29482 L 144.97063 272.295833 C 146.326605 294.9536 161.204723 304.198043 181.049975 304.195979 C 199.986088 304.195625 214.753433 294.952336 216.106667 272.29144 L 227.608481 272.291785 C 226.252238 292.132865 215.657269 307.915284 199.98954 313.442133 L 199.98461 327.303791 C 199.985198 370.257208 224.902197 396.977042 270.558752 396.973994 C 339.88865 396.971687 345.860853 354.024753 345.863709 289.879917 Z M 44.305814 114.468592 C 58.167081 102.40653 72.938854 97.783126 88.606651 97.785969 C 98.866835 97.781594 109.461595 99.589788 120.512036 102.859304 L 117.691995 109.282934 C 107.545172 106.129053 98.302956 104.663591 89.172459 104.660425 C 74.856899 104.662421 61.43584 108.830025 48.477267 119.994045 C 47.574385 120.443588 47.119815 120.444443 46.222816 120.444818 C 43.402332 120.441757 41.599067 117.17486 44.305814 114.468592 Z M 296.03645 102.854239 L 293.217077 109.283939 C 283.069586 106.123988 273.82737 104.658525 264.580862 104.661978 C 250.264635 104.657904 236.850314 108.83091 223.996278 119.995718 C 222.982789 120.445141 222.53429 120.445328 221.63122 120.446371 C 218.927414 120.442762 217.007471 117.176413 219.824826 114.470265 C 233.692163 102.407535 248.463936 97.784131 264.131732 97.786974 C 274.275239 97.783147 284.87607 99.590674 296.03645 102.854239 Z M 271.458872 369.244901 C 285.774431 369.242904 299.1893 365.186576 312.153943 354.021888 C 313.056825 353.572345 313.505324 353.572158 314.408394 353.571115 C 317.228878 353.574176 319.032143 356.841073 316.325396 359.547341 C 302.458059 371.610071 287.692356 376.232807 272.02456 376.229964 C 261.764375 376.234339 251.163544 374.426812 240.119174 371.156629 L 242.822537 364.733546 C 253.079968 367.887547 262.328374 369.241735 271.458872 369.244901 Z M 59.068317 368.789778 L 61.888358 362.366147 C 72.035729 365.636706 81.277397 366.985491 90.524572 366.988109 C 104.840132 366.986113 118.25512 362.819177 131.109704 351.771047 C 132.005847 351.316101 132.571693 351.321436 133.474762 351.320393 C 136.1779 351.317932 138.097964 354.473674 135.280489 357.290429 C 121.413272 369.242552 106.641499 373.865956 90.973702 373.863113 C 80.830196 373.86694 70.229365 372.059413 59.068317 368.789778 Z M 161.209521 205.332621 C 162.10652 205.332246 163.010325 205.89638 163.913582 206.343836 C 163.009913 211.868502 172.703157 221.566607 182.398164 221.562968 C 187.921786 221.563568 192.994755 219.199109 197.16551 212.319678 C 197.617926 209.953577 199.423022 209.048421 200.885866 209.053381 C 202.243506 209.051483 204.044805 210.401633 204.047814 213.221449 C 198.523848 224.722664 190.743088 228.89032 182.85422 228.891873 C 171.800906 228.891341 161.205635 220.097348 158.837485 210.969672 C 157.488121 207.695848 158.837537 205.329372 161.209521 205.332621 Z M 202.243663 197.101169 C 202.691975 196.652482 203.14581 196.086449 203.594309 196.086261 C 204.607986 196.085338 205.511979 197.097972 206.409833 197.552167 C 208.213954 201.273634 206.863615 202.626434 205.056808 202.62245 C 202.243063 202.624791 197.619314 199.354832 202.243663 197.101169 Z M 130.208222 109.847533 C 131.559791 109.846303 133.472365 111.202644 133.474827 113.905782 C 133.022223 115.823384 131.560421 116.721494 130.202782 116.723392 C 128.851213 116.724623 126.933423 115.823519 126.482102 113.452391 L 126.487985 113.003223 C 126.934211 110.748397 128.850582 109.849432 130.208222 109.847533 Z M 230.422358 357.293208 C 231.773927 357.291978 233.691717 358.193081 234.143038 360.56421 L 234.143225 361.01271 C 233.690929 363.268204 231.774558 364.167169 230.422989 364.1684 C 229.071419 364.16963 227.153442 362.820027 227.156384 360.110151 C 227.602917 358.193217 229.070789 357.294439 230.422358 357.293208 Z M 46.222204 357.742752 C 46.669285 355.942496 48.025882 355.037527 49.377451 355.036297 C 50.840295 355.041257 52.647477 355.94224 53.098251 358.196691 L 53.098438 358.645191 C 52.646022 361.011292 50.840926 361.916448 49.378749 361.917558 C 48.026513 361.912719 46.219143 360.563236 46.222204 357.742752 Z M 302.006996 113.004896 C 302.459293 110.749402 304.264389 109.844246 305.727233 109.849206 C 307.084873 109.847308 308.886172 111.197459 308.88323 113.907335 C 308.436029 115.818199 307.079433 116.723167 305.727863 116.724397 C 304.265687 116.725508 302.458505 115.824525 302.007184 113.453396 Z M 302.006996 113.004896 " stroke="#d269e6" stroke-width="77.920647" stroke-opacity="1" stroke-miterlimit="4"/></g><g clip-path="url(#d3626d46ca)"><path stroke-linecap="butt" transform="matrix(0.623764, 0.141478, -0.141478, 0.623764, 1175.641441, 337.62567)" fill="none" stroke-linejoin="miter" d="M 302.010458 139.385002 C 298.741755 95.982825 255.339749 70.951763 141.703507 70.9563 C 19.843139 70.953727 8.338899 142.987867 8.344191 171.173669 C 8.340503 204.42778 22.210447 233.965283 48.475881 251.999126 L 48.927678 252.003113 C 81.279254 273.760381 126.03279 279.735311 166.731958 279.734939 C 174.058447 279.732723 181.4989 279.735971 188.823421 279.28331 L 189.728223 290.782489 C 181.045677 291.680942 172.255858 292.134046 163.46272 292.130749 C 123.32796 292.134615 83.986794 282.439655 48.026471 264.513109 C 24.009667 269.590969 11.500559 285.259836 14.769929 327.753817 C 18.038632 371.155994 61.442115 396.52489 174.95979 396.522196 C 296.938725 396.522926 308.43504 324.039692 308.435704 295.852538 C 308.436558 207.696726 217.009065 187.859732 144.972881 187.859959 C 138.997727 187.856268 133.023924 187.858533 127.389923 188.309767 L 126.031258 179.061528 C 135.27686 178.160615 144.524431 177.710147 153.31757 177.713443 C 193.446374 177.710928 233.131329 187.40306 268.751849 204.880638 C 292.762697 199.80413 305.167217 181.879475 302.010458 139.385002 Z M 100.668181 355.489311 C 101.570422 355.491329 102.473282 355.937837 103.486116 356.841604 C 104.388309 358.196309 120.056535 361.011387 120.958777 361.013405 C 133.026203 363.718361 146.328291 365.185135 159.742546 365.186117 C 175.974786 365.186706 192.546435 362.818279 207.765446 359.097116 C 214.752182 357.293244 221.181424 352.672499 229.074339 351.771536 C 232.678585 352.669938 233.695752 357.29258 229.975477 358.643643 C 217.007505 360.113296 218.923101 364.168944 205.50727 366.535501 C 189.277393 369.803342 172.703283 371.608713 156.583655 371.607632 C 145.424327 371.608716 103.936486 368.794548 98.302906 361.46154 C 96.49938 358.645475 98.300641 355.487736 100.668181 355.489311 Z M 79.474017 96.881663 C 92.325265 95.532421 90.520437 91.357713 103.936267 88.991157 C 120.059981 85.835068 136.633599 83.917086 152.865839 83.917675 C 163.912555 83.917083 205.508402 86.738065 211.033976 94.064259 C 212.837502 96.880324 211.036733 100.150674 208.669193 100.149099 C 207.768303 100.153037 206.8636 99.587962 205.963377 98.683703 C 205.062536 97.334954 189.274391 94.515762 188.372149 94.513744 C 176.42329 91.806945 163.010434 90.459231 149.596179 90.458249 C 133.47655 90.457168 116.791798 92.713476 101.571436 96.428683 C 94.691355 98.233413 88.156809 102.859256 80.376505 103.759726 C 76.658297 102.855861 75.753742 98.232726 79.474017 96.881663 Z M 95.143655 240.95708 C 98.868437 242.304084 99.314622 246.480093 94.692106 247.829138 C 57.26641 241.857948 31.453465 212.317668 26.828384 174.890595 C 27.732693 172.637685 29.086905 171.622882 30.439592 171.622931 C 31.90489 171.622488 33.256051 172.637389 33.708416 174.438552 C 37.87675 207.698273 60.988976 235.878462 95.143655 240.95708 Z M 225.801312 96.883276 C 226.703553 96.885294 227.155968 97.33377 228.060178 97.786233 C 228.623234 97.783772 229.069693 98.233599 229.071662 98.684044 C 230.876539 101.506065 229.067971 104.659199 226.701782 104.66358 C 225.799541 104.661562 224.901286 104.207747 223.436037 102.855504 C 221.182558 100.15402 222.983327 96.88367 225.801312 96.883276 Z M 82.630495 350.869526 C 83.531385 350.865588 84.548207 351.317559 85.900845 352.670295 C 88.156167 355.490346 86.354906 358.648085 83.536921 358.648479 C 82.63468 358.646461 82.182265 358.197985 81.278055 357.745522 C 80.826259 357.741535 80.379801 357.291707 80.377832 356.841262 C 78.461694 354.02569 80.375567 350.867459 82.630495 350.869526 Z M 114.988017 243.657852 C 115.890258 243.65987 116.790974 244.67674 117.693833 245.123248 C 119.608811 248.734406 118.256568 250.199655 116.339474 250.196111 C 113.6341 250.196013 109.010621 246.929897 113.633804 244.672655 C 114.083139 244.113586 114.537572 243.659821 114.988017 243.657852 Z M 114.988017 243.657852 " stroke="#d269e6" stroke-width="77.920647" stroke-opacity="1" stroke-miterlimit="4"/></g><g fill="#000000" fill-opacity="1"><g transform="translate(314.30036, 626.071904)"><g><path d="M 152.765625 -199.703125 C 144.609375 -226.3125 114.015625 -235.71875 43.15625 -219.65625 C -32.875 -202.40625 -29.890625 -155.828125 -25.90625 -138.265625 C -21.203125 -117.53125 -8.390625 -101.078125 10.59375 -93.546875 L 10.875 -93.609375 C 34.109375 -84.65625 62.875 -87.234375 88.234375 -92.984375 C 92.828125 -94.03125 97.4375 -95.078125 101.984375 -96.421875 L 104.203125 -89.34375 C 98.859375 -87.53125 93.4375 -86 87.96875 -84.765625 C 62.921875 -79.078125 37.0625 -79.578125 12.046875 -85.71875 C -2.203125 -79.140625 -7.765625 -67.609375 0.265625 -41.5625 C 8.421875 -14.9375 39.09375 -5.234375 109.9375 -21.3125 C 185.984375 -38.546875 182.9375 -85.40625 178.953125 -102.984375 C 166.46875 -157.984375 106.625 -157.4375 61.6875 -147.25 C 57.9375 -146.390625 54.203125 -145.546875 50.828125 -144.46875 L 48.640625 -150.03125 C 54.28125 -151.921875 59.953125 -153.53125 65.4375 -154.765625 C 90.5 -160.453125 116.640625 -160 141.296875 -154.09375 C 155.5625 -160.65625 160.78125 -173.671875 152.765625 -199.703125 Z M 57.765625 -36.421875 C 58.328125 -36.546875 58.96875 -36.390625 59.6875 -35.953125 C 60.453125 -35.21875 70.640625 -35.71875 71.203125 -35.84375 C 79.09375 -35.796875 87.65625 -36.84375 96 -38.75 C 106.09375 -41.03125 116.125 -44.796875 125.109375 -49.265625 C 129.15625 -51.40625 132.546875 -55.203125 137.3125 -56.890625 C 139.75 -56.828125 140.96875 -54.078125 138.859375 -52.6875 C 131 -50 132.75 -47.671875 124.703125 -44.328125 C 115.09375 -40.015625 104.96875 -36.53125 94.890625 -34.234375 C 87.96875 -32.671875 61.671875 -28.53125 57.15625 -32.359375 C 55.625 -33.8125 56.3125 -36.09375 57.765625 -36.421875 Z M 7.921875 -194.71875 C 15.78125 -197.390625 14.0625 -199.734375 22.09375 -203.078125 C 31.703125 -207.359375 41.8125 -210.890625 51.90625 -213.171875 C 58.8125 -214.734375 85.125 -218.859375 89.625 -215.0625 C 91.171875 -213.59375 90.46875 -211.3125 89.03125 -210.984375 C 88.453125 -210.84375 87.8125 -211 87.09375 -211.46875 C 86.328125 -212.1875 76.15625 -211.6875 75.578125 -211.5625 C 67.703125 -211.578125 59.140625 -210.5625 50.78125 -208.671875 C 40.71875 -206.375 30.671875 -202.59375 21.6875 -198.125 C 17.625 -196 14.25 -192.21875 9.46875 -190.515625 C 7.046875 -190.578125 5.8125 -193.328125 7.921875 -194.71875 Z M 38.109375 -107.0625 C 40.609375 -106.71875 41.46875 -104.1875 38.796875 -102.6875 C 14.625 -101.125 -5.703125 -115.90625 -13.875 -138.578125 C -13.625 -140.15625 -12.890625 -140.921875 -12.015625 -141.125 C -11.15625 -141.3125 -10.171875 -140.9375 -9.609375 -139.84375 C -2.3125 -119.703125 16.0625 -105.40625 38.109375 -107.0625 Z M 99.234375 -215.421875 C 99.8125 -215.5625 100.171875 -215.328125 100.8125 -215.171875 C 101.078125 -215.234375 101.4375 -215.015625 101.5 -214.734375 C 103.046875 -213.25 102.359375 -210.984375 100.921875 -210.65625 C 100.34375 -210.515625 99.703125 -210.671875 98.640625 -211.359375 C 96.8125 -212.75 97.515625 -215.03125 99.234375 -215.421875 Z M 45.859375 -36.734375 C 46.4375 -36.875 47.078125 -36.734375 48.15625 -36.0625 C 49.984375 -34.65625 49.28125 -32.375 47.546875 -31.984375 C 46.96875 -31.84375 46.640625 -32.078125 46 -32.234375 C 45.703125 -32.171875 45.34375 -32.390625 45.28125 -32.671875 C 43.734375 -34.15625 44.421875 -36.40625 45.859375 -36.734375 Z M 50.875 -108.15625 C 51.4375 -108.28125 52.171875 -107.84375 52.8125 -107.671875 C 54.484375 -105.640625 53.8125 -104.5625 52.65625 -104.3125 C 50.9375 -103.921875 47.59375 -105.28125 50.15625 -107.390625 C 50.359375 -107.734375 50.59375 -108.09375 50.875 -108.15625 Z M 50.875 -108.15625 "/></g></g></g><g fill="#000000" fill-opacity="1"><g transform="translate(503.279339, 582.78808)"><g><path d="M 153.75 -109.015625 C 135.265625 -106.84375 129.546875 -92.203125 111.359375 -90.078125 C 96.109375 -88.296875 86.84375 -96.421875 85.40625 -108.71875 C 83.890625 -121.640625 90.890625 -132.875 106.140625 -134.65625 C 124.328125 -136.78125 133.296875 -123.546875 151.78125 -125.71875 C 172.609375 -128.15625 182.078125 -153.96875 179.84375 -173.03125 C 176.46875 -201.78125 143.953125 -222.9375 87.046875 -216.28125 L 83.234375 -215.828125 C 20.921875 -207.03125 -12.03125 -163.640625 -4.84375 -102.3125 C 3.71875 -29.28125 48.640625 -3.625 107.46875 -9.03125 L 111.28125 -9.484375 C 168.1875 -16.140625 195.3125 -41.03125 191.9375 -69.78125 C 189.5625 -90.03125 173.6875 -111.359375 153.75 -109.015625 Z M 25.609375 -167.140625 C 37.796875 -189.984375 62.78125 -202.71875 88.296875 -205.71875 C 104.140625 -207.5625 120.125 -205.578125 133.203125 -200.5625 C 133.46875 -198.21875 131.40625 -195.609375 129.953125 -195.4375 C 129.359375 -195.359375 129.015625 -195.625 128.65625 -196.171875 C 128.65625 -196.171875 107.390625 -202.59375 92.734375 -200.875 C 65.453125 -197.6875 42.546875 -187.5625 28.5 -162.71875 C 26.28125 -158.90625 24.015625 -155.359375 23.6875 -150.5625 C 23.515625 -149.375 22.703125 -148.96875 21.8125 -148.859375 C 20.921875 -148.765625 19.65625 -149.484375 19.21875 -150.640625 C 19.640625 -157.234375 22.96875 -161.78125 25.609375 -167.140625 Z M 27.625 -66.28125 C 27.78125 -67.484375 28.84375 -68.515625 29.734375 -68.609375 C 30.59375 -68.71875 31.515625 -68.53125 31.953125 -67.375 C 33.375 -62.796875 36.40625 -59.875 39.453125 -56.65625 C 58.859375 -35.734375 83.46875 -31.203125 110.75 -34.390625 C 125.421875 -36.109375 144.640625 -47.28125 144.640625 -47.28125 C 144.84375 -47.90625 145.109375 -48.21875 145.703125 -48.296875 C 147.171875 -48.46875 149.796875 -46.390625 150.0625 -44.046875 C 138.5 -36.140625 123.390625 -30.515625 107.546875 -28.671875 C 82.03125 -25.671875 54.8125 -32.28125 37.65625 -51.6875 C 33.859375 -56.296875 29.546875 -59.96875 27.625 -66.28125 Z M 89.875 -83.09375 C 90.46875 -83.15625 91.078125 -82.9375 91.71875 -82.703125 C 96.15625 -77.578125 101.5 -77.890625 107.375 -78.578125 L 109.125 -78.796875 C 112.34375 -79.171875 113.34375 -75.71875 110.234375 -74.46875 C 102.015625 -73.5 94.375 -72.609375 88.84375 -79.390625 C 87.703125 -81.34375 88.421875 -82.921875 89.875 -83.09375 Z M 86.796875 -139.8125 C 92.046875 -145.796875 99.5625 -147.5625 106.90625 -148.421875 C 110.140625 -148.796875 111.140625 -145.34375 108.015625 -144.09375 C 98.03125 -142.921875 93.8125 -140.9375 89.84375 -136.59375 C 89.28125 -136.265625 89 -136.234375 88.421875 -136.15625 C 86.65625 -135.953125 85.25 -137.859375 86.796875 -139.8125 Z M 158.171875 -50.9375 C 157 -50.8125 156.0625 -51.296875 155.59375 -52.734375 C 155.5625 -53.03125 155.515625 -53.3125 155.1875 -53.578125 C 155.3125 -55.078125 156.421875 -55.8125 157.296875 -55.90625 C 157.890625 -55.984375 158.484375 -56.046875 158.828125 -55.484375 C 161.609375 -54.625 161.40625 -51.328125 158.46875 -50.984375 Z M 140.578125 -193.40625 C 140.703125 -194.90625 141.53125 -195.609375 142.6875 -195.734375 L 142.984375 -195.78125 C 145.921875 -196.125 146.890625 -192.953125 144.390625 -191.453125 C 144.15625 -190.859375 143.5625 -190.796875 142.984375 -190.71875 C 142.109375 -190.625 140.859375 -191.046875 140.40625 -192.5 C 140.640625 -192.828125 140.609375 -193.125 140.578125 -193.40625 Z M 120.40625 -144.9375 C 120.984375 -145.015625 121.5625 -145.078125 122.515625 -144.609375 C 123.203125 -143.78125 123.90625 -142.984375 123.125 -142 C 122.640625 -141.046875 122.078125 -140.671875 121.78125 -140.640625 C 120.03125 -140.4375 118.0625 -144.671875 120.40625 -144.9375 Z M 118.109375 -80.75 C 118.703125 -80.8125 119.34375 -80.296875 119.96875 -80.0625 C 121.421875 -77.859375 120.640625 -76.875 119.46875 -76.734375 C 117.703125 -76.53125 114.515625 -78.25 117.28125 -80.046875 C 117.546875 -80.375 117.8125 -80.71875 118.109375 -80.75 Z M 118.109375 -80.75 "/></g></g></g><g fill="#000000" fill-opacity="1"><g transform="translate(695.844477, 559.466459)"><g><path d="M 206.375 -93.90625 C 205.96875 -151.203125 197.3125 -206.078125 108.421875 -205.453125 L 102.21875 -205.40625 C 13.3125 -204.78125 5.4375 -149.78125 5.84375 -92.484375 C 5.84375 -93.375 6.234375 -80.375 6.796875 -42.875 C 6.90625 -25.453125 9.1875 3.78125 52.609375 3.46875 C 95.421875 3.171875 97.28125 -26.09375 97.171875 -43.515625 L 97.125 -50.015625 C 86.75 -53.46875 79.578125 -63.46875 78.625 -76.46875 L 86 -76.515625 C 86.984375 -62.0625 96.484375 -56.21875 106.53125 -56.28125 C 116.265625 -56.359375 125.671875 -62.328125 126.46875 -76.8125 L 133.84375 -76.859375 C 133.046875 -63.84375 126.03125 -53.75 115.71875 -50.15625 L 115.765625 -43.65625 C 115.875 -26.234375 118.171875 3 161 2.703125 C 204.40625 2.390625 206.25 -26.875 206.140625 -44.296875 C 206.171875 -81.796875 206.375 -94.796875 206.375 -93.90625 Z M 97.84375 -112.9375 L 97.703125 -133.90625 C 97.671875 -137.15625 98.234375 -142.46875 105.90625 -143.109375 C 114.46875 -143.171875 115.09375 -137.28125 115.125 -134.03125 L 115.265625 -113.0625 C 115.296875 -109.8125 114.75 -104.484375 107.0625 -103.84375 C 98.5 -103.78125 97.875 -109.6875 97.84375 -112.9375 Z M 70.484375 -181.265625 C 81.390625 -186.046875 93.484375 -188.8125 105.59375 -188.890625 C 117.40625 -188.984375 128.9375 -186.6875 138.71875 -181.734375 C 141.6875 -180.875 142.578125 -178.21875 139.328125 -177.3125 C 128.671875 -181.671875 115.359375 -184.234375 102.671875 -184.140625 C 91.734375 -184.0625 81.421875 -181.921875 72.296875 -177.421875 L 71.703125 -177.421875 C 69.625 -177.40625 69.03125 -179.78125 70.484375 -181.265625 Z M 188.578125 -22.015625 C 179.765625 -14.265625 170.328125 -11.25 160.296875 -11.1875 C 153.796875 -11.140625 147 -12.265625 139.90625 -14.28125 L 141.640625 -18.421875 C 148.15625 -16.40625 154.0625 -15.5625 159.96875 -15.609375 C 169.125 -15.671875 177.671875 -18.390625 185.890625 -25.53125 C 186.484375 -25.84375 186.78125 -25.84375 187.375 -25.84375 C 189.140625 -25.859375 190.34375 -23.796875 188.578125 -22.015625 Z M 31.796875 -14.390625 L 33.546875 -18.546875 C 40.0625 -16.53125 45.96875 -15.6875 51.875 -15.734375 C 61.03125 -15.796875 69.578125 -18.515625 77.796875 -25.65625 C 78.375 -25.96875 78.671875 -25.96875 79.265625 -25.96875 C 81.03125 -25.984375 82.234375 -23.90625 80.46875 -22.140625 C 71.671875 -14.390625 62.234375 -11.359375 52.203125 -11.296875 C 45.703125 -11.25 38.90625 -12.390625 31.796875 -14.390625 Z M 89.375 -100.171875 C 90.265625 -100.171875 91.4375 -99.59375 91.75 -98.421875 C 92.65625 -94.578125 96.8125 -94.3125 100.0625 -94.34375 L 102.421875 -94.359375 C 105.671875 -94.375 106.28125 -90.828125 103.046875 -89.921875 C 96.84375 -89.875 89.140625 -90.125 87.625 -97.5 C 87.3125 -99.265625 88.1875 -100.15625 89.375 -100.171875 Z M 115.890625 -151.453125 C 121.203125 -150.296875 123.328125 -144.40625 123.953125 -139.40625 C 123.96875 -137.9375 123.078125 -137.03125 121.890625 -137.03125 C 121.015625 -137.015625 119.828125 -137.90625 119.515625 -139.078125 C 119.515625 -140.859375 119.171875 -146.453125 115.03125 -147.3125 C 112.65625 -148.1875 113.234375 -151.4375 115.890625 -151.453125 Z M 143.78125 -174.6875 C 143.78125 -175.875 144.65625 -177.0625 145.828125 -177.078125 C 147.015625 -177.078125 148.203125 -175.90625 148.203125 -174.71875 C 148.21875 -173.546875 147.046875 -172.640625 145.859375 -172.640625 C 144.6875 -172.625 143.796875 -173.515625 143.78125 -174.6875 Z M 131.578125 -21.3125 C 131.859375 -22.5 132.75 -23.09375 133.640625 -23.109375 C 134.515625 -23.109375 135.703125 -22.53125 136.015625 -21.046875 L 136.015625 -20.75 C 135.734375 -19.28125 134.546875 -18.671875 133.671875 -18.671875 C 132.78125 -18.65625 131.59375 -19.546875 131.578125 -21.3125 Z M 23.46875 -21.4375 C 23.765625 -22.625 24.65625 -23.203125 25.53125 -23.21875 C 26.421875 -23.21875 27.609375 -22.65625 27.90625 -21.171875 L 27.921875 -20.875 C 27.625 -19.40625 26.453125 -18.796875 25.5625 -18.796875 C 24.6875 -18.78125 23.484375 -19.671875 23.46875 -21.4375 Z M 23.46875 -21.4375 "/></g></g></g><g fill="#000000" fill-opacity="1"><g transform="translate(901.154331, 557.090786)"><g><path d="M 226.96875 -40.109375 L 235.171875 -114.671875 C 238.53125 -145.1875 239.03125 -179.609375 195.578125 -184.390625 C 143.625 -190.09375 136.296875 -147.828125 133.90625 -126.109375 L 132.34375 -112.015625 C 132.125 -109.953125 130.8125 -108.609375 128.171875 -108.90625 C 125.53125 -109.1875 124.5 -110.796875 124.71875 -112.859375 L 126.28125 -126.953125 C 128.671875 -148.671875 130.703125 -191.515625 78.734375 -197.234375 C 35.296875 -202.015625 28.328125 -168.3125 24.96875 -137.796875 L 16.765625 -63.234375 C 12.265625 -22.421875 13.078125 5.3125 57.125 10.15625 C 86.171875 13.359375 103.90625 -1.953125 106.90625 -29.234375 L 107.875 -38.0625 C 98.28125 -42.671875 92.625 -53.40625 93.140625 -66.125 L 100.46875 -65.3125 C 99.78125 -50.828125 108.53125 -43.9375 121.15625 -42.546875 C 133.203125 -41.21875 143.21875 -46.046875 145.6875 -60.34375 L 153.03125 -59.53125 C 150.75 -47 142.90625 -37.765625 132.546875 -35.34375 L 131.578125 -26.515625 C 128.578125 0.765625 142.546875 19.5625 171.609375 22.75 C 215.640625 27.59375 222.46875 0.703125 226.96875 -40.109375 Z M 47.53125 -172.75 C 57.1875 -179.421875 66.890625 -181.3125 76.859375 -180.21875 C 83.328125 -179.515625 89.953125 -177.578125 96.765625 -174.765625 L 94.5625 -170.84375 C 88.328125 -173.609375 82.546875 -175.140625 76.671875 -175.78125 C 67.578125 -176.78125 58.78125 -175.078125 49.78125 -168.921875 C 49.15625 -168.703125 48.859375 -168.734375 48.28125 -168.796875 C 46.515625 -169 45.578125 -171.1875 47.53125 -172.75 Z M 208.328125 -162.484375 L 206.125 -158.578125 C 199.875 -161.34375 194.109375 -162.859375 188.234375 -163.515625 C 179.125 -164.515625 170.34375 -162.8125 161.328125 -156.65625 C 160.71875 -156.4375 160.421875 -156.46875 159.828125 -156.53125 C 158.078125 -156.71875 157.140625 -158.921875 159.078125 -160.46875 C 168.734375 -167.140625 178.4375 -169.046875 188.421875 -167.953125 C 194.875 -167.234375 201.515625 -165.3125 208.328125 -162.484375 Z M 174.125 5.1875 C 183.234375 6.1875 192.03125 4.46875 201.03125 -1.65625 C 201.65625 -1.890625 201.9375 -1.859375 202.53125 -1.796875 C 204.296875 -1.59375 205.234375 0.578125 203.296875 2.171875 C 193.65625 8.828125 183.921875 10.734375 173.9375 9.625 C 167.484375 8.921875 160.859375 7 154.046875 4.171875 L 156.25 0.25 C 162.484375 3.03125 168.25 4.546875 174.125 5.1875 Z M 39.109375 -9.953125 L 41.34375 -13.875 C 47.578125 -11.125 53.34375 -9.578125 59.21875 -8.9375 C 68.3125 -7.9375 77.125 -9.640625 86.125 -15.78125 C 86.734375 -16.015625 87.03125 -15.984375 87.625 -15.921875 C 89.375 -15.71875 90.328125 -13.53125 88.375 -11.96875 C 78.71875 -5.296875 69 -3.40625 59.03125 -4.5 C 52.5625 -5.203125 45.953125 -7.125 39.109375 -9.953125 Z M 115.4375 -106.75 C 116.03125 -106.671875 116.578125 -106.3125 117.140625 -105.96875 C 116.15625 -102.5 121.65625 -95.65625 127.8125 -94.984375 C 131.34375 -94.59375 134.71875 -95.71875 137.84375 -99.8125 C 138.296875 -101.25 139.546875 -101.703125 140.421875 -101.609375 C 141.296875 -101.515625 142.390625 -100.515625 142.203125 -98.734375 C 137.859375 -91.796875 132.59375 -89.703125 127.59375 -90.265625 C 120.5625 -91.03125 114.40625 -97.359375 113.578125 -103.390625 C 112.9375 -105.53125 113.96875 -106.90625 115.4375 -106.75 Z M 142.140625 -109.15625 C 142.46875 -109.421875 142.796875 -109.6875 143.09375 -109.65625 C 143.6875 -109.578125 144.1875 -108.921875 144.75 -108.5625 C 145.671875 -106.09375 144.6875 -105.3125 143.515625 -105.4375 C 141.75 -105.640625 139.046875 -108 142.140625 -109.15625 Z M 102.453125 -169.671875 C 103.34375 -169.578125 104.421875 -168.578125 104.21875 -166.8125 C 103.796875 -165.671875 102.859375 -165.171875 101.96875 -165.265625 C 101.09375 -165.359375 99.984375 -166.09375 99.84375 -167.59375 L 99.875 -167.890625 C 100.34375 -169.328125 101.578125 -169.765625 102.453125 -169.671875 Z M 148.84375 -5.328125 C 149.734375 -5.21875 150.84375 -4.5 150.953125 -3 L 150.921875 -2.71875 C 150.484375 -1.265625 149.25 -0.796875 148.359375 -0.90625 C 147.484375 -1 146.40625 -2.015625 146.59375 -3.765625 C 147.03125 -4.921875 147.96875 -5.421875 148.84375 -5.328125 Z M 31.6875 -17.90625 C 32.109375 -19.046875 33.046875 -19.53125 33.9375 -19.4375 C 34.8125 -19.34375 35.921875 -18.625 36.0625 -17.125 L 36.03125 -16.828125 C 35.5625 -15.40625 34.328125 -14.953125 33.453125 -15.046875 C 32.5625 -15.140625 31.484375 -16.140625 31.6875 -17.90625 Z M 211.4375 -155.609375 C 211.90625 -157.046875 213.125 -157.5 214.015625 -157.40625 C 214.890625 -157.3125 215.96875 -156.296875 215.765625 -154.53125 C 215.359375 -153.390625 214.40625 -152.90625 213.53125 -153 C 212.640625 -153.09375 211.546875 -153.8125 211.40625 -155.3125 Z M 211.4375 -155.609375 "/></g></g></g><g fill="#000000" fill-opacity="1"><g transform="translate(1120.323473, 581.517305)"><g><path d="M 223.984375 -114.265625 C 228.109375 -141.78125 204.546875 -163.46875 133.6875 -179.53125 C 57.65625 -196.78125 40.265625 -153.484375 36.28125 -135.921875 C 31.578125 -115.1875 36.046875 -94.796875 49.90625 -79.828125 L 50.1875 -79.765625 C 67.296875 -61.65625 94.375 -51.578125 119.734375 -45.828125 C 124.328125 -44.78125 128.9375 -43.734375 133.609375 -42.984375 L 132.546875 -35.65625 C 126.953125 -36.3125 121.40625 -37.28125 115.9375 -38.515625 C 90.890625 -44.203125 67.78125 -55.796875 47.859375 -72.125 C 32.171875 -72.359375 22.171875 -64.328125 18.171875 -37.375 C 14.046875 -9.84375 37.53125 12.140625 108.375 28.21875 C 184.421875 45.453125 201.875 1.875 205.859375 -15.703125 C 218.34375 -70.703125 164.125 -96.03125 119.1875 -106.21875 C 115.4375 -107.078125 111.703125 -107.921875 108.171875 -108.40625 L 108.609375 -114.375 C 114.5 -113.640625 120.328125 -112.625 125.8125 -111.390625 C 150.875 -105.703125 174.265625 -94.03125 193.953125 -78.0625 C 209.65625 -77.8125 219.96875 -87.296875 223.984375 -114.265625 Z M 67.828125 -7.921875 C 68.390625 -7.796875 68.90625 -7.390625 69.34375 -6.671875 C 69.734375 -5.6875 79.140625 -1.75 79.703125 -1.625 C 86.8125 1.828125 94.96875 4.5625 103.3125 6.46875 C 113.40625 8.75 124.09375 9.671875 134.109375 9.515625 C 138.6875 9.34375 143.390625 7.390625 148.40625 7.921875 C 150.59375 9.015625 150.5 12.015625 148.015625 12.375 C 139.75 11.40625 140.3125 14.265625 131.640625 13.796875 C 121.09375 13.546875 110.46875 12.34375 100.390625 10.046875 C 93.46875 8.484375 67.953125 0.875 65.53125 -4.515625 C 64.78125 -6.5 66.375 -8.25 67.828125 -7.921875 Z M 91.140625 -172.25 C 99.40625 -171.265625 98.84375 -174.109375 107.53125 -173.671875 C 118.078125 -173.390625 128.6875 -172.203125 138.78125 -169.921875 C 145.6875 -168.359375 171.21875 -160.734375 173.625 -155.34375 C 174.390625 -153.375 172.78125 -151.59375 171.34375 -151.921875 C 170.765625 -152.0625 170.25 -152.46875 169.8125 -153.1875 C 169.421875 -154.1875 160.03125 -158.125 159.453125 -158.25 C 152.359375 -161.671875 144.203125 -164.4375 135.84375 -166.328125 C 125.78125 -168.625 115.078125 -169.53125 105.03125 -169.375 C 100.46875 -169.21875 95.78125 -167.25 90.75 -167.796875 C 88.578125 -168.890625 88.65625 -171.890625 91.140625 -172.25 Z M 80.578125 -80.15625 C 82.671875 -78.75 82.375 -76.09375 79.296875 -75.90625 C 56.8125 -84.9375 44.859375 -107.03125 47.28125 -131.015625 C 48.1875 -132.3125 49.171875 -132.703125 50.046875 -132.5 C 50.90625 -132.3125 51.640625 -131.53125 51.671875 -130.3125 C 49.5625 -108.984375 59.96875 -88.15625 80.578125 -80.15625 Z M 182.453125 -151.546875 C 183.03125 -151.40625 183.265625 -151.046875 183.78125 -150.640625 C 184.046875 -150.578125 184.28125 -150.203125 184.21875 -149.921875 C 184.984375 -147.9375 183.359375 -146.171875 181.921875 -146.5 C 181.34375 -146.640625 180.828125 -147.046875 180.171875 -148.109375 C 179.125 -150.15625 180.734375 -151.9375 182.453125 -151.546875 Z M 57.234375 -13.359375 C 57.8125 -13.21875 58.328125 -12.828125 59 -11.75 C 60.046875 -9.6875 58.4375 -7.9375 56.703125 -8.328125 C 56.125 -8.46875 55.921875 -8.828125 55.40625 -9.234375 C 55.109375 -9.296875 54.875 -9.671875 54.9375 -9.953125 C 54.171875 -11.9375 55.796875 -13.6875 57.234375 -13.359375 Z M 92.5625 -75.625 C 93.125 -75.5 93.578125 -74.78125 94.09375 -74.359375 C 94.734375 -71.796875 93.65625 -71.125 92.5 -71.375 C 90.78125 -71.765625 88.34375 -74.4375 91.5625 -75.234375 C 91.921875 -75.453125 92.28125 -75.6875 92.5625 -75.625 Z M 92.5625 -75.625 "/></g></g></g></svg>